classDiagram
SharedData *-- ConsumerLicenceDefinition: has
SharedData *-- ProviderLicenceDefinition: has
DataSharingAgreement <-- DataConsumer: agrees to
DataSharingAgreement <-- DataOwner: agrees to
SharedData <-- DataSharingAgreement: refers to
DataProvisioningAgreement <-- DataProvider: agrees to
DataProvisioningAgreement <-- DataOwner: agrees to
SharedData <-- DataProvisioningAgreement: refers to  
ProviderLicenceDefinition <-- DataProvisioningAgreement: confirms
ConsumerLicenceDefinition <-- DataSharingAgreement : confirms
class DataSharingAgreement
class DataProvisioningAgreement
class SharedData
class DataProvider
class DataOwner
class DataConsumer
class ProviderLicenceDefinition
class ConsumerLicenceDefinition